<svg width="1200" height="630" viewBox="0 0 1200 630" fill="none" xmlns="http://www.w3.org/2000/svg">
  <rect width="1200" height="630" fill="#F7F7F5"/>
  <rect x="116" y="116" width="968" height="398" rx="28" fill="white" stroke="#18181B" stroke-opacity="0.14" stroke-width="2"/>
  <rect x="176" y="180" width="360" height="78" rx="20" fill="#18181B"/>
  <text x="224" y="229" fill="white" font-family="Arial, Helvetica, sans-serif" font-size="34" font-weight="700">Comments</text>
  <rect x="176" y="294" width="848" height="40" rx="12" fill="#F4F4F5"/>
  <rect x="176" y="354" width="760" height="24" rx="12" fill="#E4E4E7"/>
  <rect x="176" y="402" width="690" height="24" rx="12" fill="#E4E4E7"/>
  <path d="M806 200C806 168.52 831.52 143 863 143H965C996.48 143 1022 168.52 1022 200V258C1022 289.48 996.48 315 965 315H908.5L865.5 352.5V315H863C831.52 315 806 289.48 806 258V200Z" fill="#18181B"/>
  <text x="841" y="213" fill="white" font-family="Arial, Helvetica, sans-serif" font-size="16" font-weight="600">giscus</text>
  <text x="841" y="241" fill="white" fill-opacity="0.72" font-family="Arial, Helvetica, sans-serif" font-size="14">GitHub Discussions</text>
  <text x="176" y="580" fill="#52525B" font-family="Arial, Helvetica, sans-serif" font-size="40" font-weight="700">giscus on a markdown blog</text>
</svg>
